<svg width="369" height="2" viewBox="0 0 369 2" fill="none" xmlns="http://www.w3.org/2000/svg">
<path d="M0.36 1.384V0.28H12.36V1.384H0.36ZM13.0866 1.384V0.28H25.0866V1.384H13.0866ZM25.8131 1.384V0.28H37.8131V1.384H25.8131ZM38.5397 1.384V0.28H50.5397V1.384H38.5397ZM51.2663 1.384V0.28H63.2663V1.384H51.2663ZM63.9928 1.384V0.28H75.9928V1.384H63.9928ZM76.7194 1.384V0.28H88.7194V1.384H76.7194ZM89.4459 1.384V0.28H101.446V1.384H89.4459ZM102.173 1.384V0.28H114.173V1.384H102.173ZM114.899 1.384V0.28H126.899V1.384H114.899ZM127.626 1.384V0.28H139.626V1.384H127.626ZM140.352 1.384V0.28H152.352V1.384H140.352ZM153.079 1.384V0.28H165.079V1.384H153.079ZM165.805 1.384V0.28H177.805V1.384H165.805ZM178.532 1.384V0.28H190.532V1.384H178.532ZM191.258 1.384V0.28H203.258V1.384H191.258ZM203.985 1.384V0.28H215.985V1.384H203.985ZM216.712 1.384V0.28H228.712V1.384H216.712ZM229.438 1.384V0.28H241.438V1.384H229.438ZM242.165 1.384V0.28H254.165V1.384H242.165ZM254.891 1.384V0.28H266.891V1.384H254.891ZM267.618 1.384V0.28H279.618V1.384H267.618ZM280.344 1.384V0.28H292.344V1.384H280.344ZM293.071 1.384V0.28H305.071V1.384H293.071ZM305.798 1.384V0.28H317.798V1.384H305.798ZM318.524 1.384V0.28H330.524V1.384H318.524ZM331.251 1.384V0.28H343.251V1.384H331.251ZM343.977 1.384V0.28H355.977V1.384H343.977ZM356.704 1.384V0.28H368.704V1.384H356.704Z" fill="black"/>
</svg>
