<svg width="364" height="12" viewBox="0 0 364 12" fill="none" xmlns="http://www.w3.org/2000/svg">
<path d="M3.72575 11.864L2.31775 10.808L5.35775 6.936L0.55775 5.592L1.13375 3.864L5.77375 5.592L5.58175 0.599998H7.34175L7.18175 5.528L11.8218 3.832L12.3978 5.56L7.59775 6.872L10.7018 10.808L9.22975 11.832L6.50975 7.736L3.72575 11.864ZM20.4445 11.864L19.0365 10.808L22.0765 6.936L17.2765 5.592L17.8525 3.864L22.4925 5.592L22.3005 0.599998H24.0605L23.9005 5.528L28.5405 3.832L29.1165 5.56L24.3165 6.872L27.4205 10.808L25.9485 11.832L23.2285 7.736L20.4445 11.864ZM37.1633 11.864L35.7552 10.808L38.7953 6.936L33.9953 5.592L34.5713 3.864L39.2113 5.592L39.0193 0.599998H40.7793L40.6193 5.528L45.2593 3.832L45.8353 5.56L41.0353 6.872L44.1393 10.808L42.6673 11.832L39.9473 7.736L37.1633 11.864ZM53.882 11.864L52.474 10.808L55.514 6.936L50.714 5.592L51.29 3.864L55.93 5.592L55.738 0.599998H57.498L57.338 5.528L61.978 3.832L62.554 5.56L57.754 6.872L60.858 10.808L59.386 11.832L56.666 7.736L53.882 11.864ZM70.6008 11.864L69.1927 10.808L72.2328 6.936L67.4328 5.592L68.0088 3.864L72.6488 5.592L72.4568 0.599998H74.2168L74.0568 5.528L78.6968 3.832L79.2728 5.56L74.4728 6.872L77.5768 10.808L76.1048 11.832L73.3848 7.736L70.6008 11.864ZM87.3195 11.864L85.9115 10.808L88.9515 6.936L84.1515 5.592L84.7275 3.864L89.3675 5.592L89.1755 0.599998H90.9355L90.7755 5.528L95.4155 3.832L95.9915 5.56L91.1915 6.872L94.2955 10.808L92.8235 11.832L90.1035 7.736L87.3195 11.864ZM104.038 11.864L102.63 10.808L105.67 6.936L100.87 5.592L101.446 3.864L106.086 5.592L105.894 0.599998H107.654L107.494 5.528L112.134 3.832L112.71 5.56L107.91 6.872L111.014 10.808L109.542 11.832L106.822 7.736L104.038 11.864ZM120.757 11.864L119.349 10.808L122.389 6.936L117.589 5.592L118.165 3.864L122.805 5.592L122.613 0.599998H124.373L124.213 5.528L128.853 3.832L129.429 5.56L124.629 6.872L127.733 10.808L126.261 11.832L123.541 7.736L120.757 11.864ZM137.476 11.864L136.068 10.808L139.108 6.936L134.308 5.592L134.884 3.864L139.524 5.592L139.332 0.599998H141.092L140.932 5.528L145.572 3.832L146.148 5.56L141.348 6.872L144.452 10.808L142.98 11.832L140.26 7.736L137.476 11.864ZM154.195 11.864L152.786 10.808L155.827 6.936L151.027 5.592L151.603 3.864L156.243 5.592L156.051 0.599998H157.811L157.651 5.528L162.291 3.832L162.867 5.56L158.067 6.872L161.171 10.808L159.699 11.832L156.979 7.736L154.195 11.864ZM170.913 11.864L169.505 10.808L172.545 6.936L167.745 5.592L168.321 3.864L172.961 5.592L172.769 0.599998H174.529L174.369 5.528L179.009 3.832L179.585 5.56L174.785 6.872L177.889 10.808L176.417 11.832L173.697 7.736L170.913 11.864ZM187.632 11.864L186.224 10.808L189.264 6.936L184.464 5.592L185.04 3.864L189.68 5.592L189.488 0.599998H191.248L191.088 5.528L195.728 3.832L196.304 5.56L191.504 6.872L194.608 10.808L193.136 11.832L190.416 7.736L187.632 11.864ZM204.351 11.864L202.943 10.808L205.983 6.936L201.183 5.592L201.759 3.864L206.399 5.592L206.207 0.599998H207.967L207.807 5.528L212.447 3.832L213.023 5.56L208.223 6.872L211.327 10.808L209.855 11.832L207.135 7.736L204.351 11.864ZM221.07 11.864L219.661 10.808L222.702 6.936L217.902 5.592L218.478 3.864L223.118 5.592L222.926 0.599998H224.686L224.526 5.528L229.166 3.832L229.742 5.56L224.942 6.872L228.046 10.808L226.574 11.832L223.854 7.736L221.07 11.864ZM237.788 11.864L236.38 10.808L239.42 6.936L234.62 5.592L235.196 3.864L239.836 5.592L239.644 0.599998H241.404L241.244 5.528L245.884 3.832L246.46 5.56L241.66 6.872L244.764 10.808L243.292 11.832L240.572 7.736L237.788 11.864ZM254.507 11.864L253.099 10.808L256.139 6.936L251.339 5.592L251.915 3.864L256.555 5.592L256.363 0.599998H258.123L257.963 5.528L262.603 3.832L263.179 5.56L258.379 6.872L261.483 10.808L260.011 11.832L257.291 7.736L254.507 11.864ZM271.226 11.864L269.818 10.808L272.858 6.936L268.058 5.592L268.634 3.864L273.274 5.592L273.082 0.599998H274.842L274.682 5.528L279.322 3.832L279.898 5.56L275.098 6.872L278.202 10.808L276.73 11.832L274.01 7.736L271.226 11.864ZM287.945 11.864L286.536 10.808L289.577 6.936L284.777 5.592L285.353 3.864L289.993 5.592L289.801 0.599998H291.561L291.401 5.528L296.041 3.832L296.617 5.56L291.817 6.872L294.921 10.808L293.449 11.832L290.729 7.736L287.945 11.864ZM304.663 11.864L303.255 10.808L306.295 6.936L301.495 5.592L302.071 3.864L306.711 5.592L306.519 0.599998H308.279L308.119 5.528L312.759 3.832L313.335 5.56L308.535 6.872L311.639 10.808L310.167 11.832L307.447 7.736L304.663 11.864ZM321.382 11.864L319.974 10.808L323.014 6.936L318.214 5.592L318.79 3.864L323.43 5.592L323.238 0.599998H324.998L324.838 5.528L329.478 3.832L330.054 5.56L325.254 6.872L328.358 10.808L326.886 11.832L324.166 7.736L321.382 11.864ZM338.101 11.864L336.693 10.808L339.733 6.936L334.933 5.592L335.509 3.864L340.149 5.592L339.957 0.599998H341.717L341.557 5.528L346.197 3.832L346.773 5.56L341.973 6.872L345.077 10.808L343.605 11.832L340.885 7.736L338.101 11.864ZM354.82 11.864L353.411 10.808L356.452 6.936L351.652 5.592L352.228 3.864L356.868 5.592L356.676 0.599998H358.436L358.276 5.528L362.916 3.832L363.492 5.56L358.692 6.872L361.796 10.808L360.324 11.832L357.604 7.736L354.82 11.864Z" fill="black"/>
</svg>
