<svg width="500" height="800" viewBox="0 0 500 800" fill="none" xmlns="http://www.w3.org/2000/svg">
<path d="M0 798.299V6.34778C0 7.14353 1.43268 7.62084 7.16338 3.16406C12.8941 -1.29271 19.1023 1.30707 21.4901 3.16406C24.4085 5.02105 31.5189 7.62084 36.6128 3.16406C41.7068 -1.29271 48.2865 1.30707 50.9396 3.16406C53.3274 5.02105 59.5356 7.62084 65.2663 3.16406C70.997 -1.29271 77.7359 1.30707 80.389 3.16406C83.0421 5.02105 89.781 7.62084 95.5117 3.16406C101.242 -1.29271 107.981 1.30707 110.634 3.16406C113.287 5.02105 120.026 7.62084 125.757 3.16406C131.488 -1.29271 137.696 1.30707 140.084 3.16406C142.737 5.02105 149.476 7.62084 155.206 3.16406C160.937 -1.29271 166.615 1.30707 168.737 3.16406C172.717 5.5524 177.493 9.53096 183.064 3.16406C187.521 -1.92946 194.472 1.04176 197.391 3.16406C199.779 5.55173 206.146 8.89448 212.513 3.16406C218.881 -2.56636 225.779 0.776386 228.432 3.16406C230.82 5.28642 236.869 8.25773 241.963 3.16406C247.057 -1.92961 253.637 1.0417 256.29 3.16406C258.677 5.28647 264.886 8.25784 270.616 3.16406C276.347 -1.92972 283.617 1.04165 286.535 3.16406C289.188 5.02116 295.927 7.62109 301.658 3.16406C307.388 -1.29297 313.597 1.30696 315.984 3.16406C318.372 5.02125 324.581 7.62131 330.311 3.16406C336.042 -1.29319 342.781 1.30687 345.434 3.16406C347.822 4.75592 354.03 6.98453 359.761 3.16406C365.491 -0.656407 371.7 1.5722 374.087 3.16406C376.741 4.75592 383.479 6.98453 389.21 3.16406C394.941 -0.656407 401.68 1.5722 404.333 3.16406C406.19 4.75592 411.655 6.98453 418.66 3.16406C425.664 -0.656407 431.129 1.5722 432.986 3.16406C435.905 4.75592 443.015 6.98453 448.109 3.16406C453.203 -0.656407 460.844 1.5722 464.028 3.16406C466.415 4.75592 472.464 6.98453 477.558 3.16406C482.652 -0.656407 489.763 1.5722 492.681 3.16406L499.844 7.93964V799.095C500.375 799.891 499.844 800.209 493.477 795.115C487.11 790.021 480.742 792.993 478.354 795.115C475.701 797.768 468.803 801.483 462.436 795.115C456.068 788.748 450.762 792.462 448.905 795.115C446.517 797.238 440.15 800.209 433.782 795.115C427.415 790.021 421.578 792.993 419.455 795.115C416.537 797.503 409.427 800.846 404.333 795.115C399.239 789.384 392.659 792.727 390.006 795.115C387.618 797.503 381.251 800.846 374.883 795.115C368.516 789.384 362.679 792.727 360.557 795.115C358.169 797.238 351.801 800.209 345.434 795.115C339.066 790.021 333.76 792.993 331.903 795.115C329.781 797.238 323.944 800.209 317.576 795.115C311.209 790.021 304.311 792.993 301.658 795.115C299.005 797.238 292.266 800.209 286.535 795.115C280.804 790.021 274.596 792.993 272.208 795.115C270.616 797.503 265.682 800.846 258.677 795.115C251.673 789.384 245.147 792.727 242.759 795.115C240.636 797.503 234.8 800.846 228.432 795.115C222.065 789.384 215.697 792.727 213.309 795.115C210.656 796.707 204.236 798.936 199.779 795.115C192.138 789.384 185.982 792.727 183.86 795.115C181.737 797.768 175.901 801.483 169.533 795.115C163.166 788.748 156.268 792.462 153.615 795.115C151.757 797.768 146.451 801.483 140.084 795.115C133.716 788.748 127.349 792.462 124.961 795.115C122.573 797.238 116.365 800.209 110.634 795.115C104.904 790.021 98.1648 792.993 95.5117 795.115C90.4177 798.299 84.3686 796.442 81.9809 795.115C74.9767 789.384 68.45 792.727 66.0622 795.115C60.3315 798.299 55.1845 796.442 53.3274 795.115C45.6864 790.021 39.0006 792.993 36.6128 795.115C34.4903 796.176 28.8127 797.662 23.082 795.115C17.3513 792.568 9.55117 794.054 6.36744 795.115L0 798.299Z" fill="white"/>
</svg>
