<svg width="540" height="840" viewBox="0 0 540 840" fill="none" xmlns="http://www.w3.org/2000/svg">
<g filter="url(#filter0_d_319_260)">
<path d="M20 810.299V18.3478C20 19.1435 21.4327 19.6208 27.1634 15.1641C32.8941 10.7073 39.1023 13.3071 41.4901 15.1641C44.4085 17.021 51.5189 19.6208 56.6128 15.1641C61.7068 10.7073 68.2865 13.3071 70.9396 15.1641C73.3274 17.021 79.5356 19.6208 85.2663 15.1641C90.997 10.7073 97.7359 13.3071 100.389 15.1641C103.042 17.021 109.781 19.6208 115.512 15.1641C121.242 10.7073 127.981 13.3071 130.634 15.1641C133.287 17.021 140.026 19.6208 145.757 15.1641C151.488 10.7073 157.696 13.3071 160.084 15.1641C162.737 17.021 169.476 19.6208 175.206 15.1641C180.937 10.7073 186.615 13.3071 188.737 15.1641C192.717 17.5524 197.493 21.531 203.064 15.1641C207.521 10.0705 214.472 13.0418 217.391 15.1641C219.779 17.5517 226.146 20.8945 232.513 15.1641C238.881 9.43364 245.779 12.7764 248.432 15.1641C250.82 17.2864 256.869 20.2577 261.963 15.1641C267.057 10.0704 273.637 13.0417 276.29 15.1641C278.677 17.2865 284.886 20.2578 290.616 15.1641C296.347 10.0703 303.617 13.0417 306.535 15.1641C309.188 17.0212 315.927 19.6211 321.658 15.1641C327.388 10.707 333.597 13.307 335.984 15.1641C338.372 17.0212 344.581 19.6213 350.311 15.1641C356.042 10.7068 362.781 13.3069 365.434 15.1641C367.822 16.7559 374.03 18.9845 379.761 15.1641C385.491 11.3436 391.7 13.5722 394.087 15.1641C396.741 16.7559 403.479 18.9845 409.21 15.1641C414.941 11.3436 421.68 13.5722 424.333 15.1641C426.19 16.7559 431.655 18.9845 438.66 15.1641C445.664 11.3436 451.129 13.5722 452.986 15.1641C455.905 16.7559 463.015 18.9845 468.109 15.1641C473.203 11.3436 480.844 13.5722 484.028 15.1641C486.415 16.7559 492.464 18.9845 497.558 15.1641C502.652 11.3436 509.763 13.5722 512.681 15.1641L519.844 19.9396V811.095C520.375 811.891 519.844 812.209 513.477 807.115C507.11 802.021 500.742 804.993 498.354 807.115C495.701 809.768 488.803 813.483 482.436 807.115C476.068 800.748 470.762 804.462 468.905 807.115C466.517 809.238 460.15 812.209 453.782 807.115C447.415 802.021 441.578 804.993 439.455 807.115C436.537 809.503 429.427 812.846 424.333 807.115C419.239 801.384 412.659 804.727 410.006 807.115C407.618 809.503 401.251 812.846 394.883 807.115C388.516 801.384 382.679 804.727 380.557 807.115C378.169 809.238 371.801 812.209 365.434 807.115C359.066 802.021 353.76 804.993 351.903 807.115C349.781 809.238 343.944 812.209 337.576 807.115C331.209 802.021 324.311 804.993 321.658 807.115C319.005 809.238 312.266 812.209 306.535 807.115C300.804 802.021 294.596 804.993 292.208 807.115C290.616 809.503 285.682 812.846 278.677 807.115C271.673 801.384 265.147 804.727 262.759 807.115C260.636 809.503 254.8 812.846 248.432 807.115C242.065 801.384 235.697 804.727 233.309 807.115C230.656 808.707 224.236 810.936 219.779 807.115C212.138 801.384 205.982 804.727 203.86 807.115C201.737 809.768 195.901 813.483 189.533 807.115C183.166 800.748 176.268 804.462 173.615 807.115C171.757 809.768 166.451 813.483 160.084 807.115C153.716 800.748 147.349 804.462 144.961 807.115C142.573 809.238 136.365 812.209 130.634 807.115C124.904 802.021 118.165 804.993 115.512 807.115C110.418 810.299 104.369 808.442 101.981 807.115C94.9767 801.384 88.45 804.727 86.0622 807.115C80.3315 810.299 75.1845 808.442 73.3274 807.115C65.6864 802.021 59.0006 804.993 56.6128 807.115C54.4903 808.176 48.8127 809.662 43.082 807.115C37.3513 804.568 29.5512 806.054 26.3674 807.115L20 810.299Z" fill="white"/>
</g>
<defs>
<filter id="filter0_d_319_260" x="0" y="0" width="540" height="839.551" filterUnits="userSpaceOnUse" color-interpolation-filters="sRGB">
<feFlood flood-opacity="0" result="BackgroundImageFix"/>
<feColorMatrix in="SourceAlpha" type="matrix" values="0 0 0 0 0 0 0 0 0 0 0 0 0 0 0 0 0 0 127 0" result="hardAlpha"/>
<feOffset dy="8"/>
<feGaussianBlur stdDeviation="10"/>
<feComposite in2="hardAlpha" operator="out"/>
<feColorMatrix type="matrix" values="0 0 0 0 0 0 0 0 0 0 0 0 0 0 0 0 0 0 0.25 0"/>
<feBlend mode="normal" in2="BackgroundImageFix" result="effect1_dropShadow_319_260"/>
<feBlend mode="normal" in="SourceGraphic" in2="effect1_dropShadow_319_260" result="shape"/>
</filter>
</defs>
</svg>
